<svg xmlns="http://www.w3.org/2000/svg"
    height="24px"
    viewBox="0 -960 960 960"
    width="24px"
    fill="#e3e3e3">
    <path d="M640-80v-90q-56-18-94-64t-44-106h80q8 43 40.5 71.5T700-240h120q25 0 42.5 17.5T880-180v100H640Zm120-200q-33 0-56.5-23.5T680-360q0-33 23.5-56.5T760-440q33 0 56.5 23.5T840-360q0 33-23.5 56.5T760-280ZM80-520v-100q0-25 17.5-42.5T140-680h120q45 0 77.5-28.5T378-780h80q-6 60-44 106t-94 64v90H80Zm120-200q-33 0-56.5-23.5T120-800q0-33 23.5-56.5T200-880q33 0 56.5 23.5T280-800q0 33-23.5 56.5T200-720Z" />
</svg>