<svg width="1200" height="1200" xmlns="http://www.w3.org/2000/svg" preserveAspectRatio="xMidYMid meet" version="1.0">

 <g>
  <title>Layer 1</title>
  <g id="svg_1" fill="#000000" transform="translate(0, 1536) scale(0.1, -0.1)">
   <path id="svg_2" d="m5189.16975,13811.10815c-350,-37 -754,-173 -1053,-354l-94,-57l-206,51c-157,39 -225,51 -282,51c-170,0 -344,-80 -503,-229c-105,-99 -119,-140 -66,-193c30,-30 31,-31 107,-24l76,7l-149,-153c-83,-84 -206,-218 -275,-298c-243,-283 -438,-477 -612,-608c-41,-31 -182,-109 -351,-193c-155,-78 -315,-164 -355,-192c-155,-107 -263,-269 -298,-446c-40,-203 15,-281 149,-212c33,17 62,30 63,28c2,-2 -5,-30 -16,-63c-32,-106 -43,-214 -37,-387c6,-167 19,-249 63,-384c36,-113 127,-293 179,-358c38,-46 48,-67 59,-128c28,-142 103,-301 183,-383c38,-38 39,-42 51,-149c23,-206 88,-392 170,-485l39,-45l6,-110c9,-175 60,-320 134,-386c63,-55 110,-72 209,-77c151,-7 324,49 468,152c76,54 195,178 248,259l40,62l-6,-130c-13,-269 -56,-479 -186,-919c-111,-377 -136,-530 -127,-780c7,-225 38,-341 99,-375c39,-22 85,1 109,53l19,41l0,-60c0,-77 24,-230 50,-325c32,-117 128,-302 207,-400c79,-99 198,-197 309,-257c62,-33 90,-57 131,-107c122,-152 221,-187 268,-96c8,16 15,45 15,64l0,34l108,-107c116,-117 206,-183 347,-254c235,-117 549,-186 886,-192c128,-2 167,-7 210,-23c30,-11 108,-33 174,-48c105,-25 140,-28 285,-29c180,0 257,12 428,67c84,27 109,30 250,33c408,9 755,98 1004,258c87,55 203,153 266,224l59,66l7,-46c5,-34 15,-53 37,-72c59,-49 108,-28 219,93c38,41 70,79 70,84c0,4 24,20 53,34c189,95 364,271 463,467c71,138 117,315 130,490l7,98l18,-41c21,-48 55,-66 95,-53c68,23 102,138 111,373c10,262 -20,434 -151,873c-101,339 -136,510 -156,777c-15,202 -17,195 34,119c174,-259 453,-419 711,-407c72,4 100,10 141,31c122,62 189,206 201,432c6,106 7,111 38,146c92,102 160,295 184,516c9,80 10,84 58,137c82,90 159,258 178,392c5,31 17,60 35,80c80,92 164,264 214,436c71,247 72,545 2,747c-8,23 -11,41 -7,39c3,-2 32,-16 63,-31c102,-51 158,-15 158,102c-1,203 -105,407 -275,539c-47,36 -164,100 -350,192c-299,148 -374,193 -500,300c-120,102 -352,343 -525,545c-85,99 -209,235 -275,303l-122,123l73,-7c72,-7 73,-6 103,24c51,50 44,79 -41,168c-110,115 -254,204 -389,239c-105,28 -184,21 -414,-36l-210,-52l-81,51c-208,130 -471,237 -739,302c-172,42 -299,60 -475,67c-226,8 -407,-16 -657,-89c-37,-10 -51,-9 -130,15c-238,70 -499,93 -758,66zm520,-199c39,-6 114,-21 167,-35c121,-31 180,-31 310,0c146,34 248,45 441,45c282,0 482,-32 751,-121c715,-235 1187,-756 1391,-1534c37,-140 125,-558 119,-564c-2,-2 -9,9 -16,25c-25,58 -59,105 -83,114c-34,13 -84,-6 -96,-37c-16,-43 -10,-68 40,-174c137,-289 188,-590 163,-967c-27,-395 -75,-590 -295,-1199c-74,-202 -139,-390 -146,-418c-120,-489 -301,-853 -590,-1185c-166,-191 -214,-372 -150,-566c21,-65 49,-99 89,-109c44,-11 73,24 125,147c26,62 60,137 77,165c16,30 26,58 22,65c-4,7 -4,10 1,6c4,-4 23,6 42,23c44,38 72,35 95,-11c23,-44 23,-179 3,-440c-25,-322 -20,-486 22,-669c29,-126 52,-112 117,74c64,178 94,251 114,268c9,8 45,17 80,21c75,7 94,16 150,69c41,41 58,72 25,46c-16,-11 -16,-11 -5,1c7,8 18,15 24,15c7,0 23,21 36,47c20,39 25,63 26,138c1,87 2,93 29,116c15,13 37,24 47,24c39,0 116,-85 196,-217l36,-58l-7,90c-15,214 -44,352 -130,625c-133,419 -184,729 -185,1130c0,74 -4,130 -8,123c-4,-6 -19,-13 -32,-15c-14,-2 -34,-9 -45,-14c-30,-16 -71,-2 -67,22c3,15 0,14 -17,-8c-12,-15 -30,-30 -41,-33c-12,-4 -17,-12 -14,-23c4,-11 3,-13 -3,-6c-8,12 -53,29 -65,26c-5,-1 -8,8 -8,20c0,20 1,21 13,4c9,-12 23,-17 47,-14c27,2 42,13 70,50c45,61 104,169 145,269l32,78l6,-157c4,-86 7,-257 7,-380c0,-384 42,-635 179,-1079c96,-308 119,-424 127,-628l6,-140l-35,70c-46,95 -150,231 -185,243c-38,13 -69,-4 -83,-45c-13,-41 -10,-66 25,-198c56,-209 58,-444 6,-640c-37,-139 -129,-313 -221,-415c-19,-22 -28,-28 -23,-15c54,148 77,305 63,429c-14,131 -40,186 -85,186c-43,0 -61,-40 -69,-152c-14,-206 -54,-366 -127,-513c-40,-79 -115,-195 -127,-195c-3,0 -7,33 -9,73c-6,162 -36,288 -74,308c-46,24 -64,-1 -98,-135c-74,-293 -350,-564 -693,-682c-63,-22 -389,-85 -435,-84c-14,1 -14,3 3,12c47,27 216,161 288,228c193,180 332,435 372,681c18,114 20,260 3,277c-19,19 -46,14 -63,-12c-9,-13 -25,-68 -36,-121c-55,-277 -171,-497 -364,-691c-203,-204 -425,-342 -690,-427c-150,-48 -238,-62 -385,-61c-148,2 -215,13 -370,60c-404,126 -763,410 -932,740c-57,112 -93,210 -124,344c-37,158 -59,199 -99,184c-23,-9 -28,-48 -21,-163c23,-384 200,-685 564,-961c61,-46 109,-86 108,-88c-5,-5 -262,37 -331,54c-204,51 -403,162 -550,309c-120,119 -196,248 -241,407c-40,140 -65,166 -111,115c-36,-39 -63,-170 -63,-309l-1,-73l-37,41c-21,23 -60,86 -88,140c-86,165 -120,292 -133,500c-10,150 -24,186 -73,192c-33,4 -54,-23 -73,-93c-36,-138 -26,-302 29,-463c14,-40 21,-70 17,-67c-19,11 -122,154 -155,215c-74,136 -126,349 -126,515c0,110 15,226 50,375c29,128 30,171 2,203c-18,21 -60,22 -89,2c-47,-33 -148,-188 -178,-274c-10,-31 -11,-22 -8,74c7,230 33,366 133,696c75,249 103,359 134,529c37,204 46,333 47,710c1,266 4,338 12,315c29,-78 139,-284 172,-322c43,-50 84,-58 109,-21c13,18 16,19 16,5c0,-23 -44,-50 -70,-42c-11,3 -35,18 -53,33c-17,15 -26,19 -18,10c11,-15 11,-19 -4,-24c-11,-5 -21,-1 -27,10c-5,9 -13,14 -19,11c-5,-4 -9,-1 -9,5c0,6 -5,8 -11,5c-6,-4 -8,-14 -5,-24c4,-9 -2,-5 -13,8c-14,18 -20,21 -24,10c-4,-8 -4,-1 0,15c5,25 3,27 -14,22c-17,-5 -20,-2 -18,19c2,14 0,25 -5,25c-4,0 -10,-127 -13,-282c-4,-247 -8,-302 -30,-433c-34,-192 -70,-337 -152,-610c-80,-265 -114,-427 -121,-577l-6,-113l38,63c22,35 62,90 91,122c29,31 51,59 49,61c-10,10 59,7 78,-3c11,-7 24,-12 27,-11c8,2 10,-19 13,-112c3,-97 29,-158 97,-227c58,-58 116,-88 169,-88c23,0 50,-5 61,-10c27,-15 62,-89 119,-249c61,-174 69,-191 91,-191c20,0 37,48 61,170c17,89 14,393 -6,618c-25,285 -19,388 25,428c49,44 100,-16 195,-228c76,-169 85,-185 124,-193c33,-7 65,9 53,28c-3,6 -1,7 5,3c28,-17 72,136 72,249c0,88 -32,199 -82,280c-40,65 -168,216 -178,210c-4,-3 -14,3 -21,13c-13,15 -12,16 4,3c29,-23 19,-3 -27,58c-186,241 -346,588 -438,945c-17,67 -76,243 -131,391c-223,602 -280,816 -318,1183c-15,148 -6,517 15,631c34,182 88,346 162,493c27,54 34,79 30,101c-9,46 -33,67 -77,67c-43,0 -66,-19 -99,-84l-20,-41l6,45c12,99 76,393 114,533c209,762 679,1277 1373,1505c147,49 353,95 494,111c100,12 447,12 528,1zm-1980,-335c55,-16 102,-30 104,-31c2,-2 -46,-55 -107,-119c-122,-125 -203,-228 -280,-357c-233,-388 -390,-899 -481,-1568c-85,-623 -53,-1207 95,-1702c60,-202 71,-281 55,-415c-15,-133 -60,-311 -103,-411c-76,-176 -197,-309 -349,-385c-105,-53 -219,-82 -288,-73c-71,10 -107,45 -133,129c-32,102 -31,356 2,532c38,202 38,255 4,289c-24,24 -77,20 -103,-8c-23,-24 -71,-169 -71,-213c0,-52 -18,-17 -39,75c-76,338 -49,667 95,1114c30,93 54,183 54,200c0,60 -59,89 -98,50c-113,-113 -247,-489 -269,-755c-3,-37 -8,-65 -11,-63c-16,17 -34,156 -39,306c-9,281 27,508 142,892c36,119 65,226 65,238c0,25 -42,70 -66,70c-96,0 -291,-522 -324,-865c-5,-60 -10,-114 -10,-120c-1,-22 -50,111 -69,188c-32,130 -44,251 -38,382c6,127 20,190 81,360c57,160 46,215 -43,215c-25,0 -77,-11 -116,-24c-38,-14 -71,-23 -73,-21c-1,1 7,28 19,59c47,126 203,244 509,387c413,192 572,323 1050,869c184,211 359,386 482,484c105,83 118,98 118,145c0,40 -29,66 -103,93l-59,21l38,20c106,55 196,58 359,12zm4897,16c31,-11 68,-26 83,-34l28,-14l-52,-18c-73,-24 -111,-58 -111,-100c0,-41 16,-59 110,-129c108,-80 292,-267 525,-531c212,-240 467,-499 570,-577c110,-83 225,-148 479,-273c270,-132 358,-190 421,-275c34,-47 81,-148 72,-156c-2,-2 -25,5 -52,17c-26,12 -74,24 -106,26c-121,11 -137,-42 -70,-219c56,-148 69,-196 81,-309c19,-168 -7,-358 -72,-537l-32,-87l-13,122c-37,362 -227,873 -325,873c-25,0 -68,-44 -68,-69c0,-11 21,-85 46,-163c58,-181 107,-373 136,-530c20,-107 23,-154 22,-363c-1,-209 -3,-250 -21,-315c-17,-62 -21,-69 -22,-40c-5,150 -92,458 -183,646c-70,147 -130,194 -178,142c-27,-29 -22,-57 36,-232c59,-172 110,-375 130,-511c28,-192 9,-522 -40,-684l-13,-45l-22,85c-41,152 -65,189 -125,189c-39,0 -66,-36 -66,-87c0,-24 11,-110 25,-191c47,-274 44,-479 -10,-599c-25,-56 -56,-78 -121,-88c-57,-9 -175,19 -268,64c-248,121 -390,344 -451,710c-20,120 -16,313 8,396c70,238 88,308 111,435c50,285 60,410 60,765c0,279 -3,358 -22,510c-76,619 -209,1121 -398,1498c-108,215 -216,366 -388,541c-59,60 -106,110 -104,111c2,1 57,16 123,33c141,36 192,39 267,13zm-5017,-4985c19,-13 19,-17 3,-122c-40,-260 -33,-420 34,-768l42,-219l-28,-23c-19,-17 -32,-22 -44,-15c-9,4 -24,6 -32,3c-8,-2 -12,-1 -8,3c3,4 -9,37 -27,73c-66,132 -115,360 -115,537c0,257 78,541 151,545c3,0 14,-6 24,-14zm4914,-22c24,-30 64,-151 85,-254c48,-238 18,-542 -75,-767c-35,-84 -63,-110 -106,-97c-16,4 -31,7 -34,6c-11,-2 -1,80 31,252c17,94 29,181 25,194c-3,13 -2,21 3,18c26,-16 30,344 5,520c-9,67 -13,128 -10,138c10,25 53,20 76,-10z"/>
   <path id="svg_3" d="m4654.16975,12713.10815c-76,-24 -213,-94 -290,-149c-78,-55 -204,-179 -249,-245c-49,-72 -53,-157 -7,-157c7,0 64,39 128,88c124,93 301,199 397,238c113,46 206,54 326,29c78,-16 195,-62 195,-76c0,-5 -13,-3 -30,6c-35,18 -44,19 -34,3c4,-7 3,-8 -5,-4c-6,4 -9,11 -6,16c7,12 -92,41 -170,50c-105,12 -203,-4 -300,-49c-126,-59 -266,-145 -380,-234c-75,-59 -106,-77 -124,-74c-20,4 -31,-7 -76,-77c-146,-226 -217,-439 -219,-658c0,-104 2,-121 20,-145c24,-31 53,-40 84,-23c11,6 58,68 105,137c84,126 84,127 95,97c21,-58 36,-80 95,-140c35,-36 85,-72 120,-90c55,-27 69,-29 170,-29c102,0 114,2 175,31c63,30 150,106 175,154c9,16 14,19 20,11c4,-7 25,-26 47,-42c53,-38 101,-39 124,-4c34,51 15,142 -58,290c-125,250 -313,374 -511,335c-208,-40 -482,-288 -630,-569c-16,-31 -26,-45 -22,-31c4,14 7,36 7,49c0,14 3,19 7,12c5,-8 12,-3 19,14c15,33 15,36 0,32c-7,-1 -16,-9 -20,-17c-4,-10 -7,-7 -7,10c-1,19 4,26 19,26c11,0 20,-5 20,-10c0,-6 5,-5 12,2c9,9 8,15 -8,28c-18,15 -18,15 2,5c19,-9 27,-3 75,62c117,157 265,290 394,354c176,88 339,65 487,-67c31,-27 75,-78 98,-113c23,-34 47,-61 52,-59c5,1 7,-2 3,-7c-3,-6 8,-36 24,-68c37,-75 75,-198 68,-224c-5,-17 -3,-18 9,-8c8,6 12,20 9,30c-3,9 -1,20 4,24c7,4 9,-1 5,-12c-14,-43 30,26 71,112c60,125 76,197 82,355c6,160 -12,297 -55,427l-29,86l25,22c20,17 24,27 18,49c-16,64 -155,165 -275,200c-73,21 -210,20 -281,-3zm-32,-907c29,-33 25,-85 -8,-118c-31,-31 -110,-29 -144,3c-29,27 -36,85 -13,113c37,47 125,49 165,2z"/>
   <path id="svg_4" d="m7124.16975,12718.10815c-100,-29 -201,-97 -247,-167c-30,-45 -26,-84 11,-100l24,-11l-24,-59c-13,-32 -36,-102 -51,-156c-25,-91 -27,-113 -27,-298c-1,-223 8,-272 70,-401c34,-73 107,-163 134,-168c8,-2 27,-6 42,-10c31,-9 60,4 105,47l32,30l48,-53c98,-109 208,-155 349,-148c70,4 94,10 156,41c84,41 154,107 196,185l29,53l45,-63c25,-35 64,-91 87,-125c57,-86 112,-97 149,-30c14,26 17,56 16,162c-1,112 -5,143 -28,220c-50,164 -127,320 -218,441c-29,39 -44,51 -58,47c-13,-3 -55,22 -132,79c-209,156 -367,246 -469,269c-89,19 -260,7 -339,-23c-102,-39 -110,-41 -43,-8c152,76 343,76 500,1c94,-45 267,-157 387,-250c43,-34 84,-61 91,-61c22,0 39,30 38,66c-1,50 -51,121 -153,217c-125,120 -274,214 -415,263c-65,22 -242,28 -305,10zm560,-730c36,-16 73,-29 82,-29c9,-1 15,-3 13,-6c-8,-7 63,-52 77,-49c7,2 12,-3 13,-9c0,-15 39,-44 49,-38c3,3 4,2 1,-2c-3,-3 33,-45 79,-93c136,-141 267,-332 266,-387c-1,-10 -9,2 -19,27c-57,147 -275,401 -433,506c-288,192 -544,111 -721,-226c-78,-148 -99,-239 -72,-305c8,-18 7,-19 -9,-5c-18,14 -18,16 -3,167c1,11 5,19 10,16c4,-2 7,2 7,9c0,7 14,42 30,76c17,35 27,68 24,73c-3,5 0,8 8,7c7,-2 12,5 11,15c0,10 1,16 4,13c3,-3 24,21 48,52c79,107 165,174 270,209c65,21 188,11 265,-21zm-115,-160c59,-25 71,-75 29,-125c-48,-58 -143,-50 -170,15c-18,44 -3,87 39,108c40,19 59,20 102,2z"/>
   <path id="svg_5" d="m4887.16975,11138.10815c-32,-25 -118,-98 -192,-163c-220,-194 -301,-262 -401,-331c-130,-90 -140,-99 -140,-139c0,-44 35,-68 86,-59c51,10 219,99 300,159c94,70 280,252 369,362c95,117 114,165 79,199c-23,24 -37,20 -101,-28z"/>
   <path id="svg_6" d="m7071.16975,11165.10815c-4,-3 -7,-21 -7,-39c0,-85 271,-384 485,-536c75,-53 259,-148 287,-148c32,0 68,23 75,47c10,42 -13,69 -129,148c-121,83 -164,118 -328,264c-199,178 -319,271 -349,271c-15,0 -31,-3 -34,-7z"/>
   <path id="svg_7" d="m5799.16975,11021.10815c-79,-25 -110,-98 -59,-138c63,-50 165,-6 167,72c2,59 -44,86 -108,66z"/>
   <path id="svg_8" d="m5819.16975,10601.10815c-496,-48 -856,-289 -941,-629c-23,-92 -15,-251 18,-345c56,-159 143,-299 259,-420c172,-179 358,-283 604,-336c107,-24 128,-36 157,-92c18,-35 22,-59 23,-137c0,-87 -3,-100 -30,-149c-38,-69 -86,-110 -231,-198c-253,-152 -465,-256 -614,-300c-112,-33 -258,-41 -358,-19c-233,49 -472,258 -579,507c-95,220 -113,488 -48,714c30,102 31,127 7,148c-64,58 -158,-41 -207,-218c-9,-34 -19,-116 -22,-192c-11,-271 61,-513 218,-724c53,-72 168,-185 239,-237l45,-32l33,-142c59,-250 102,-390 149,-488l47,-95l1,-115c1,-140 18,-207 86,-349l51,-104l-7,-76c-8,-96 9,-233 39,-316c120,-332 521,-577 1021,-625c133,-13 392,-13 513,0c264,28 497,105 684,225c110,71 244,212 295,310c63,123 77,186 78,355c1,134 3,149 25,190c85,158 103,222 105,375l1,130l47,95c51,104 76,186 140,451l42,176l50,38c225,168 389,429 441,702c22,113 22,311 0,413c-20,93 -76,210 -118,245c-40,34 -86,31 -107,-7c-14,-25 -13,-33 11,-110c39,-123 50,-187 50,-311c0,-217 -52,-395 -165,-562c-124,-182 -333,-332 -517,-371c-105,-22 -257,-14 -375,20c-185,54 -650,311 -758,418c-68,68 -90,123 -90,223c1,139 43,204 150,225c171,35 339,106 471,199c202,144 387,402 443,618c90,355 -148,701 -583,847c-212,72 -528,101 -793,75zm431,-284c163,-31 214,-85 127,-133c-159,-87 -658,-66 -717,31c-8,12 -8,22 0,35c14,22 106,59 176,71c89,15 328,12 414,-4zm-761,-2470c124,-18 264,-62 375,-118l85,-42l-3,-140c-4,-162 10,-373 39,-595c22,-165 35,-199 65,-168c26,26 54,319 61,635l5,271l87,41c237,110 474,148 666,108c72,-16 242,-74 249,-86c10,-15 -16,-245 -36,-317c-30,-115 -32,-143 -13,-250c14,-74 16,-125 12,-218c-10,-206 -51,-306 -173,-431c-150,-154 -361,-260 -620,-311c-111,-22 -384,-25 -494,-5c-295,53 -586,218 -710,403c-52,78 -77,163 -92,308c-10,102 -9,137 7,252l17,133l-26,95c-20,76 -46,257 -46,327c0,39 261,116 415,122c17,0 75,-6 130,-14zm-444,-1456c170,-170 407,-288 699,-350c154,-33 418,-33 580,0c219,45 400,122 563,239c82,59 220,196 252,250c11,18 22,32 25,32c11,0 11,-86 1,-150c-43,-267 -334,-492 -736,-570c-396,-76 -845,-30 -1137,116c-257,128 -388,312 -388,541l0,66l32,-49c18,-27 67,-83 109,-125z"/>
   <path id="svg_9" d="m5239.16975,7836.10815c-11,-3 -54,-14 -96,-24c-42,-10 -100,-29 -129,-41l-53,-23l6,-105c6,-113 33,-255 47,-246c5,3 12,0 16,-6c4,-8 3,-9 -4,-5c-7,4 -12,1 -12,-9c0,-9 4,-14 8,-11c4,2 6,-11 4,-30c-4,-30 -2,-34 19,-33c23,0 23,1 4,9c-11,5 -14,9 -7,9c7,1 10,7 7,14c-4,6 0,4 8,-6c14,-17 14,-24 0,-70c-15,-52 -40,-106 -28,-59c4,13 2,22 -4,22c-6,0 -11,-8 -11,-17c0,-10 -3,-29 -6,-43c-13,-51 25,4 59,85c43,105 65,118 202,123c123,5 222,-15 324,-63c103,-49 187,-112 246,-184c33,-41 55,-59 65,-55c29,11 34,9 35,-15c0,-13 6,-26 13,-29c10,-3 12,4 8,29c-15,88 -26,281 -26,446l0,183l-61,31c-34,16 -68,28 -76,25c-8,-3 -12,-2 -9,3c6,10 -99,50 -199,76c-59,16 -309,29 -350,19z"/>
   <path id="svg_10" d="m6514.16975,7822.10815c-111,-23 -195,-52 -300,-101l-85,-40l-1,-212c0,-117 -6,-263 -13,-326c-6,-62 -10,-116 -7,-119c11,-10 63,33 138,113c85,90 166,147 269,188c100,40 160,50 278,45c145,-5 161,-15 211,-122c38,-84 66,-120 56,-74c-20,88 -24,139 -15,172c6,20 7,41 3,48c-4,6 -3,8 3,5c15,-9 43,132 50,249l6,101l-46,18c-25,9 -51,14 -58,10c-7,-5 -10,-4 -5,3c7,12 -61,34 -158,51c-87,16 -229,12 -326,-9z"/>
   <path id="svg_11" d="m4774.16975,9060.10815c-43,-72 -16,-178 45,-178c62,0 87,138 34,191c-28,28 -56,24 -79,-13z"/>
   <path id="svg_12" d="m7215.16975,9073.10815c-39,-39 -38,-148 2,-176c52,-36 97,-2 97,75c0,96 -52,148 -99,101z"/>
   <path id="svg_13" d="m4557.16975,8636.10815c-22,-22 -25,-32 -20,-70c6,-54 30,-84 67,-84c51,0 66,94 25,156c-20,31 -40,30 -72,-2z"/>
   <path id="svg_14" d="m7449.16975,8648.10815c-22,-16 -33,-112 -16,-145c24,-45 92,-13 105,49c7,37 -10,87 -34,100c-25,13 -33,13 -55,-4z"/>
   <path id="svg_15" d="m3439.16975,13281.10815c-33,-11 -64,-25 -70,-31c-7,-6 -7,-9 0,-7c14,4 100,-39 118,-59c48,-54 24,-105 -93,-198c-119,-95 -382,-355 -375,-372c2,-7 1,-11 -4,-8c-13,9 -214,-222 -205,-236c4,-6 3,-8 -3,-5c-6,4 -45,-30 -86,-76c-41,-45 -125,-131 -185,-191c-61,-60 -109,-113 -106,-118c3,-5 1,-7 -4,-6c-16,5 -103,-72 -96,-84c5,-7 2,-8 -5,-3c-7,4 -22,-1 -34,-13c-48,-45 -254,-162 -440,-251c-111,-53 -194,-98 -190,-104c3,-6 1,-7 -6,-3c-17,11 -203,-116 -244,-167c-35,-43 -59,-85 -71,-124l-7,-21l63,19c72,23 150,28 171,11c8,-7 16,-10 19,-7c3,3 6,-23 7,-58c1,-48 -4,-81 -24,-133c-66,-173 -83,-246 -91,-384c-5,-74 -2,-139 10,-220c16,-109 64,-295 74,-286c2,3 8,44 13,91c28,276 185,727 284,813c43,38 68,40 100,7c35,-34 32,-67 -20,-235c-142,-453 -189,-787 -153,-1092c11,-99 12,-101 20,-58c30,160 43,215 74,319c41,138 130,326 180,381c52,57 108,53 134,-9c10,-26 9,-41 -9,-101c-12,-39 -19,-76 -15,-82c4,-6 3,-8 -3,-5c-6,4 -25,-42 -46,-111c-95,-307 -130,-560 -108,-802c13,-148 30,-252 41,-245c4,2 5,-7 2,-20c-10,-52 7,-21 32,60c33,104 60,139 109,139c43,0 72,-23 87,-70c10,-28 6,-65 -20,-212c-26,-141 -33,-206 -34,-322c-1,-141 16,-266 34,-255c4,3 6,-3 3,-14c-8,-30 46,-82 93,-90c63,-11 241,20 229,40c-3,4 0,11 6,15c8,5 9,3 4,-6c-11,-18 28,-4 93,32c106,60 222,188 287,318c57,114 105,292 125,467c13,120 1,208 -55,396c-75,253 -115,484 -136,797c-40,584 80,1415 286,1979c24,68 42,128 38,134c-4,6 -1,7 7,2c10,-6 12,-3 7,14c-3,13 -3,20 0,17c3,-3 40,63 82,147c121,242 228,394 405,575c44,45 78,82 76,82c-3,0 -58,14 -124,30c-139,35 -171,36 -251,9z"/>
   <path id="svg_16" d="m8469.16975,13295.10815c-11,-2 -64,-15 -118,-30l-98,-26l103,-106c122,-125 165,-176 243,-291c32,-47 61,-84 65,-83c4,1 7,-3 7,-10c-1,-7 33,-82 75,-167c41,-85 83,-176 93,-202c10,-27 22,-45 28,-41c6,3 7,1 3,-5c-4,-7 13,-74 38,-149c114,-344 201,-782 242,-1208c12,-130 15,-239 11,-465c-7,-457 -50,-741 -164,-1100c-25,-77 -27,-99 -27,-240c1,-172 22,-293 84,-461c34,-94 127,-246 148,-241c8,1 11,-2 7,-8c-8,-14 54,-72 68,-63c6,3 7,1 3,-5c-13,-21 150,-115 253,-146c30,-9 87,-16 127,-16c88,0 120,21 147,96c50,143 47,319 -14,656c-21,115 -21,118 -2,155c25,53 62,69 107,48c41,-20 67,-67 92,-170c16,-65 18,-68 25,-40c41,156 59,445 40,605c-22,179 -62,341 -151,607c-46,138 -48,160 -19,197c32,41 79,36 119,-11c45,-54 132,-239 174,-370c38,-120 76,-277 76,-318c0,-43 18,-27 27,23c4,26 8,139 7,252c0,166 -4,229 -22,332c-29,162 -81,364 -137,538c-52,158 -55,187 -20,224c36,39 75,35 116,-11c96,-110 241,-539 272,-808l12,-110l24,75c44,137 52,184 58,340c7,189 -5,263 -71,440c-65,172 -63,236 7,259c37,12 110,1 174,-26c34,-14 35,-14 28,9c-20,65 -80,152 -97,142c-7,-4 -8,-2 -4,4c17,27 -164,142 -379,240c-181,82 -352,179 -463,261c-117,87 -380,352 -591,594c-95,109 -215,242 -267,296c-102,107 -230,218 -246,213c-5,-1 -7,1 -4,6c3,5 -19,26 -49,47c-105,72 -89,161 37,206c21,7 35,16 30,20c-4,4 -36,17 -71,28c-60,20 -109,24 -156,14z"/>
   <path id="svg_17" d="m3556.16975,8289.10815c-6,-7 -20,-34 -31,-61c-61,-140 -91,-383 -72,-569c19,-180 81,-396 132,-461c24,-30 64,-34 78,-8c10,19 11,14 -35,252c-18,96 -39,222 -45,280c-14,127 -6,352 16,468c9,46 14,90 11,98c-7,17 -40,18 -54,1z"/>
   <path id="svg_18" d="m8457.16975,8286.10815c-3,-8 2,-61 10,-117c35,-218 31,-398 -13,-647c-54,-304 -55,-310 -44,-328c31,-49 77,-13 117,89c71,179 107,440 87,625c-21,189 -88,394 -130,394c-11,0 -23,-7 -27,-16z"/>
  </g>
 </g>
</svg>