<?xml version="1.0" standalone="no"?>
<!DOCTYPE svg PUBLIC "-//W3C//DTD SVG 20010904//EN" "http://www.w3.org/TR/2001/REC-SVG-20010904/DTD/svg10.dtd">
<svg xmlns="http://www.w3.org/2000/svg" version="1.0" width="1536.000000pt" height="1024.000000pt" viewBox="0 0 1536.000000 1024.000000" preserveAspectRatio="xMidYMid meet">
<metadata>
Created by potrace 1.16, written by Peter Selinger 2001-2019
<meta name="Producer" content="Online-Convert"/></metadata>
<g transform="translate(0.000000,1024.000000) scale(0.100000,-0.100000)" fill="#000000" stroke="none">
<path d="M5855 9550 c-183 -38 -357 -89 -513 -150 -258 -101 -421 -209 -627 -415 -163 -162 -257 -271 -447 -516 -255 -328 -330 -449 -418 -669 -50 -127 -86 -192 -141 -254 -74 -83 -168 -126 -278 -126 -95 0 -125 -14 -221 -104 -64 -60 -116 -97 -190 -137 -208 -111 -275 -155 -341 -220 -112 -111 -168 -259 -156 -412 11 -139 54 -213 151 -258 121 -56 397 -94 801 -109 246 -9 365 -18 365 -28 0 -11 -93 -133 -166 -217 -174 -202 -233 -296 -370 -585 -103 -218 -142 -330 -180 -517 -63 -315 -31 -638 88 -883 43 -90 62 -117 132 -185 86 -85 150 -125 275 -170 40 -15 139 -57 219 -94 205 -95 263 -117 398 -150 176 -42 280 -54 449 -49 136 4 159 7 242 36 247 84 430 209 573 392 35 44 64 79 66 77 5 -6 -38 -333 -56 -429 -42 -223 -137 -481 -244 -661 -74 -125 -128 -201 -296 -412 -251 -315 -322 -445 -382 -694 -52 -222 49 -472 280 -692 178 -171 372 -262 644 -304 159 -24 314 -30 394 -15 233 43 487 178 663 351 232 228 352 488 377 817 3 51 10 95 15 98 5 3 36 0 70 -6 38 -7 101 -9 166 -4 l106 7 54 48 53 49 120 0 c117 0 120 1 151 28 25 22 32 38 37 82 5 38 12 56 23 58 9 2 50 -37 102 -96 315 -360 648 -573 985 -632 39 -7 72 -16 72 -20 0 -4 -39 -36 -87 -72 -241 -180 -452 -416 -504 -563 -27 -76 -25 -139 3 -159 50 -35 125 -16 242 63 108 73 224 136 294 161 34 13 64 21 67 19 2 -3 -1 -25 -6 -49 -17 -73 -7 -218 19 -267 47 -91 146 -136 252 -114 88 18 156 64 280 191 138 139 161 150 311 150 75 0 112 5 153 21 111 41 206 161 206 258 0 27 -11 72 -26 106 -47 110 -48 117 -34 213 l12 89 112 6 c301 16 566 81 802 196 130 64 165 89 350 251 135 118 235 180 259 160 8 -7 15 -22 15 -35 0 -45 42 -183 79 -260 73 -153 188 -274 330 -349 309 -162 586 -80 674 199 20 62 22 91 22 260 -1 176 -3 201 -33 340 -64 295 -73 353 -79 550 -10 344 38 723 172 1340 56 262 59 282 59 470 0 172 -2 190 -42 388 -44 219 -51 307 -31 427 18 113 9 140 -84 240 -114 122 -170 221 -213 376 -25 94 -28 277 -9 557 21 308 17 618 -9 712 -24 83 -94 225 -158 317 -160 231 -427 506 -708 729 -235 186 -318 243 -445 304 -200 97 -346 129 -585 129 -177 -1 -241 -7 -519 -50 -235 -36 -305 -39 -486 -18 -211 23 -470 24 -593 1 -219 -41 -493 -156 -667 -281 -176 -127 -337 -295 -476 -495 l-62 -90 -32 127 c-98 387 -315 752 -645 1082 -275 276 -527 452 -760 531 -81 27 -112 33 -210 36 -97 2 -136 -2 -255 -27z m393 -124 c182 -49 431 -225 708 -501 348 -347 503 -604 629 -1042 51 -180 56 -245 25 -344 -21 -67 -105 -218 -143 -257 l-23 -22 -38 51 c-51 69 -70 114 -100 240 -67 286 -169 447 -473 752 -201 201 -254 237 -350 237 -29 0 -69 -6 -88 -14 -59 -25 -70 -81 -16 -92 138 -28 158 -40 238 -132 32 -37 109 -121 172 -187 209 -220 288 -350 341 -557 42 -169 93 -497 115 -748 8 -87 -8 -148 -78 -288 -46 -93 -128 -204 -135 -183 -3 8 3 71 13 142 19 137 15 208 -21 383 -16 77 -27 96 -55 96 -17 0 -19 -8 -19 -70 0 -114 -29 -347 -55 -447 -26 -97 -76 -212 -106 -239 -20 -18 -18 -23 -44 99 -20 92 -78 270 -100 304 -61 92 -117 -112 -64 -232 25 -56 69 -270 69 -334 0 -29 -8 -59 -21 -81 -26 -42 -287 -319 -343 -363 l-39 -31 6 33 c12 59 76 211 169 398 87 176 89 184 91 256 2 74 1 77 -41 136 -27 39 -53 94 -73 158 -54 168 -109 260 -192 322 -132 97 -259 130 -394 101 -26 -6 -109 -44 -183 -85 -149 -83 -272 -135 -337 -143 -79 -9 -121 42 -132 162 -5 61 -9 71 -25 71 -26 0 -40 -44 -66 -211 -16 -95 -21 -164 -18 -228 5 -103 17 -135 83 -208 23 -25 50 -68 60 -95 69 -183 197 -355 237 -315 21 21 9 65 -52 185 -52 102 -63 133 -67 187 -4 56 -2 69 17 93 29 36 42 26 86 -71 26 -56 38 -73 51 -70 15 3 18 16 21 88 2 47 7 89 12 94 6 6 17 -10 30 -40 49 -117 107 -194 164 -219 69 -30 72 5 10 121 -26 47 -44 87 -41 90 3 3 24 -8 47 -25 66 -48 129 -64 229 -59 93 4 94 5 246 92 44 25 90 46 103 46 35 0 95 -67 89 -100 -9 -52 -65 -247 -86 -297 -42 -107 -112 -233 -220 -398 -125 -190 -201 -333 -256 -480 -46 -125 -65 -197 -104 -410 -91 -489 -230 -805 -450 -1019 -33 -33 -63 -58 -65 -55 -3 3 22 83 55 179 77 222 97 312 104 480 9 192 26 274 115 546 143 437 163 633 76 762 -25 39 -36 47 -61 47 -34 0 -34 8 -20 -205 9 -140 -2 -224 -50 -385 -19 -66 -51 -174 -71 -240 -47 -161 -70 -272 -99 -499 -29 -225 -43 -284 -102 -431 -70 -174 -157 -320 -232 -387 -67 -61 -124 -73 -346 -72 -179 1 -197 2 -308 32 -130 34 -388 134 -572 221 -118 56 -208 119 -269 189 -37 42 -79 102 -74 107 1 1 50 -31 108 -72 58 -42 141 -93 185 -113 154 -74 338 -89 470 -40 139 52 343 222 388 323 25 57 53 114 150 299 53 101 67 137 67 172 0 31 -5 46 -16 50 -20 8 -34 -1 -73 -46 -18 -21 -37 -38 -42 -38 -5 0 -21 15 -36 32 -110 132 -288 272 -415 326 -59 25 -72 27 -223 27 -133 1 -173 4 -239 23 -132 37 -216 26 -307 -39 l-30 -21 6 38 c10 59 89 259 150 378 80 155 162 282 329 509 280 381 421 611 484 792 22 61 54 267 72 450 16 177 -18 323 -94 402 -49 50 -89 64 -105 36 -8 -15 -2 -42 24 -117 19 -54 37 -119 41 -143 l7 -46 -50 52 c-54 55 -63 59 -88 35 -12 -12 -14 -27 -9 -59 9 -62 -1 -71 -42 -36 -50 44 -89 62 -150 68 -55 6 -55 6 -100 -42 -25 -26 -48 -45 -51 -42 -13 14 -22 87 -13 116 5 18 39 66 75 108 39 44 84 111 109 161 51 100 76 128 128 137 46 9 51 16 66 84 18 78 96 232 148 290 59 65 134 112 366 225 153 75 212 110 288 170 52 42 112 81 132 86 49 14 101 1 211 -50 128 -60 162 -61 325 -11 74 23 173 48 220 57 268 49 371 120 318 222 -38 72 -127 116 -236 116 -62 0 -95 -8 -190 -41 -63 -22 -153 -59 -199 -82 -117 -57 -137 -59 -228 -26 -42 16 -95 32 -117 36 -91 16 -215 -27 -342 -119 -117 -85 -284 -167 -284 -140 0 5 15 38 32 72 36 68 253 297 393 416 213 180 453 290 839 385 100 24 192 46 206 48 59 10 199 6 248 -7z m4602 -892 c187 -35 343 -115 595 -304 169 -127 238 -192 450 -425 248 -272 323 -391 382 -600 37 -133 42 -331 15 -575 -12 -102 -26 -284 -32 -405 -6 -121 -18 -281 -26 -355 -22 -196 -67 -453 -80 -457 -12 -4 -90 112 -256 382 -58 94 -143 229 -190 300 -306 470 -370 575 -348 575 6 0 53 -25 103 -55 278 -166 482 -175 617 -29 83 90 123 222 124 409 1 112 -1 124 -27 177 -47 95 -141 163 -269 193 -172 40 -310 -2 -459 -143 -80 -75 -130 -145 -192 -267 -31 -62 -72 -115 -80 -104 -2 2 -73 92 -158 199 -86 107 -170 216 -188 243 -71 105 -104 31 -61 -139 44 -170 121 -291 324 -503 197 -207 389 -453 660 -843 488 -704 600 -978 600 -1468 0 -162 -4 -207 -31 -365 -17 -99 -47 -252 -67 -340 -72 -327 -84 -439 -66 -623 20 -209 -12 -331 -116 -442 -44 -48 -172 -117 -197 -107 -7 2 -20 28 -31 56 -43 121 -152 248 -342 402 -67 54 -131 110 -143 125 -26 33 -37 77 -46 174 l-6 76 127 32 c212 54 355 124 459 227 72 72 135 192 192 365 20 61 47 126 59 143 109 148 144 245 144 402 0 179 -69 392 -181 557 -124 182 -340 347 -516 392 -206 54 -719 43 -1038 -20 -377 -75 -668 -277 -800 -555 -58 -124 -78 -215 -78 -364 -1 -196 43 -347 141 -491 48 -71 137 -157 186 -181 25 -11 57 -45 98 -101 76 -105 185 -215 263 -267 184 -121 459 -186 705 -166 63 5 117 8 118 6 7 -7 -20 -79 -55 -149 -66 -131 -145 -186 -443 -306 -200 -80 -328 -141 -481 -227 -217 -123 -398 -193 -584 -228 -117 -22 -315 -16 -428 14 -197 52 -395 179 -493 317 -92 128 -113 249 -84 478 16 125 8 284 -20 401 -11 49 -59 204 -105 345 -105 320 -133 433 -146 579 -6 69 -16 125 -25 139 -19 28 -64 29 -90 1 -43 -48 -24 -252 50 -530 60 -225 59 -219 42 -219 -25 0 -138 91 -224 179 -153 157 -322 447 -395 676 -42 132 -59 274 -64 538 -5 225 -8 260 -23 279 l-17 22 -25 -25 c-20 -20 -34 -61 -67 -195 -55 -221 -69 -358 -53 -503 20 -180 66 -299 182 -471 117 -172 167 -313 177 -490 7 -126 -7 -207 -42 -240 -51 -47 -68 -24 -223 310 -184 396 -207 480 -206 780 0 149 5 228 22 335 34 222 42 358 41 690 -2 340 -8 446 -26 452 -17 6 -78 -120 -124 -258 -22 -65 -76 -268 -119 -451 -128 -532 -146 -587 -310 -928 -207 -430 -213 -483 -120 -955 41 -209 53 -293 61 -425 11 -201 21 -270 55 -386 59 -197 64 -259 30 -339 l-13 -30 -47 94 c-26 52 -77 146 -113 210 -223 396 -299 552 -361 741 -58 174 -73 256 -79 411 -12 306 68 577 232 789 187 242 265 385 421 775 54 136 153 350 259 560 114 229 190 392 229 500 98 267 234 603 293 723 53 109 241 400 366 567 212 283 562 512 925 606 162 42 288 46 526 20 290 -32 344 -29 597 34 122 30 224 48 329 58 108 11 354 6 430 -9z m1236 -1495 c45 -89 -23 -283 -125 -353 -60 -41 -106 -56 -179 -56 -76 0 -162 20 -224 51 -101 51 -198 183 -184 250 7 34 43 99 55 99 4 0 14 -19 21 -42 22 -75 56 -132 109 -181 73 -69 129 -92 221 -92 65 0 82 4 129 30 89 49 131 136 131 273 0 66 2 73 16 61 8 -7 22 -25 30 -40z m-8140 -74 c32 -79 73 -117 122 -113 27 2 40 9 47 26 14 32 23 27 31 -15 16 -86 -54 -119 -142 -68 -74 44 -140 166 -114 214 17 32 29 23 56 -44z m1824 -193 c0 -40 33 -113 71 -156 76 -86 166 -96 274 -31 32 19 63 35 70 35 18 0 65 -39 65 -55 0 -12 -111 -58 -205 -84 -124 -34 -236 15 -315 139 -40 62 -40 77 -4 128 32 45 44 52 44 24z m-1700 -140 l49 5 -16 -41 c-57 -149 -171 -345 -186 -319 -2 5 -10 52 -17 106 -14 109 -9 207 14 262 l15 36 46 -27 c38 -22 55 -26 95 -22z m2740 -1016 c-131 -350 -222 -511 -425 -757 -109 -132 -157 -201 -204 -295 -79 -160 -115 -355 -115 -624 1 -150 4 -193 27 -300 57 -274 153 -497 362 -845 236 -391 319 -589 346 -824 27 -227 -48 -498 -190 -690 -62 -83 -185 -203 -273 -264 -81 -58 -263 -145 -378 -182 -200 -65 -502 -34 -747 76 -350 157 -506 499 -376 829 38 98 100 196 250 400 307 418 365 531 502 975 65 211 83 300 126 610 65 467 117 750 175 958 95 340 268 565 598 782 125 81 226 162 307 244 33 34 61 57 63 52 2 -5 -20 -71 -48 -145z m5601 42 c23 -40 56 -89 74 -108 85 -94 98 -130 120 -339 16 -157 25 -213 56 -361 26 -124 35 -338 20 -455 -7 -49 -30 -180 -52 -290 -92 -465 -169 -1200 -156 -1500 6 -140 33 -342 83 -615 34 -191 30 -284 -18 -380 -21 -42 -45 -73 -68 -89 -32 -21 -43 -23 -127 -18 -79 3 -102 9 -165 39 -134 64 -209 141 -285 293 -85 169 -97 338 -28 407 16 16 56 34 106 48 169 48 296 172 371 360 20 51 22 74 23 295 1 268 3 278 95 641 27 106 61 268 77 361 24 149 28 194 27 393 0 211 -1 232 -28 345 -15 66 -61 219 -101 340 -40 121 -79 245 -86 276 -18 87 -5 429 17 429 2 0 22 -33 45 -72z m-5181 -697 c-6 -64 -29 -249 -50 -411 -21 -162 -42 -338 -45 -390 -8 -114 8 -319 35 -450 11 -52 23 -108 27 -125 l6 -30 -22 20 c-38 33 -130 179 -166 262 -104 241 -85 467 72 878 38 99 87 229 109 289 21 60 41 101 42 91 2 -10 -1 -70 -8 -134z m4435 74 c143 -39 299 -145 345 -234 33 -66 41 -112 25 -138 -9 -13 -23 -23 -33 -23 -9 0 -66 25 -127 55 -182 90 -381 136 -507 116 -37 -7 -101 -29 -156 -56 -114 -55 -151 -58 -194 -15 -28 29 -30 35 -26 86 4 47 10 60 43 94 50 51 147 98 253 121 103 23 281 20 377 -6z m-8324 -405 c5 0 28 -17 52 -38 110 -100 166 -114 456 -117 278 -2 307 -9 391 -93 93 -93 115 -193 53 -242 -36 -28 -60 -25 -137 15 -54 28 -79 35 -124 35 -124 0 -194 -48 -257 -176 -21 -41 -48 -82 -62 -91 -23 -15 -28 -15 -52 -2 -36 20 -94 110 -121 188 -13 36 -31 82 -41 102 -22 45 -86 103 -143 130 -54 25 -74 46 -92 96 -17 48 -18 154 -1 175 15 19 37 28 55 22 8 -2 18 -4 23 -4z m4029 -850 c83 -166 196 -419 215 -482 22 -76 19 -134 -20 -328 -47 -235 -52 -338 -30 -609 14 -169 16 -224 7 -233 -6 -6 -33 -12 -59 -12 -43 -1 -47 1 -54 29 -4 17 -13 237 -18 490 -11 453 -19 565 -59 835 -12 74 -26 189 -32 255 -6 66 -13 132 -15 148 -3 15 -2 27 0 27 3 0 32 -54 65 -120z m1019 -429 c68 -99 69 -105 55 -234 -21 -186 -18 -300 11 -381 104 -297 369 -505 750 -592 90 -20 261 -24 416 -10 76 7 98 6 104 -4 12 -19 -54 -74 -143 -118 -70 -34 -80 -36 -194 -40 -182 -7 -316 21 -468 98 -230 116 -484 379 -672 695 -181 306 -257 567 -229 796 21 176 12 176 182 2 80 -82 165 -177 188 -212z m-589 -352 c286 -451 638 -833 959 -1038 123 -79 347 -184 511 -239 163 -56 200 -71 200 -84 0 -13 -45 -28 -150 -50 -263 -56 -644 40 -955 239 -267 172 -540 475 -660 736 -55 120 -59 148 -41 289 8 68 18 162 22 211 3 48 9 87 13 86 3 0 49 -68 101 -150z m3796 -440 c51 -48 50 -52 -28 -135 -117 -123 -189 -147 -468 -158 -85 -4 -231 -14 -324 -23 -160 -16 -173 -16 -270 1 -55 10 -151 24 -213 30 -61 6 -114 14 -118 18 -4 3 12 24 35 46 71 70 93 74 465 82 381 8 413 14 662 114 158 64 212 69 259 25z m-336 -501 c-39 -32 -128 -58 -196 -58 -65 0 -65 0 -62 27 4 40 31 48 162 48 111 0 116 -1 96 -17z m-439 -28 c10 -6 19 -17 19 -25 0 -19 -87 -77 -246 -165 -320 -177 -422 -193 -737 -111 -184 47 -250 73 -245 97 2 9 54 39 128 74 218 101 237 104 435 70 64 -11 152 -20 195 -20 80 0 220 30 315 68 57 23 107 27 136 12z m-867 -546 c16 -6 17 -15 11 -73 -3 -36 -15 -99 -27 -138 l-21 -73 30 -92 c33 -100 32 -121 -10 -167 -51 -55 -178 -80 -237 -46 -71 41 -147 -1 -301 -165 -127 -135 -200 -190 -263 -197 -33 -4 -45 -1 -61 17 -27 30 -33 155 -11 230 9 29 16 67 16 82 0 135 -213 172 -385 66 -16 -10 -34 -18 -38 -18 -17 0 62 96 141 172 67 63 105 89 185 128 98 47 377 153 385 145 8 -8 -11 -47 -50 -105 -59 -88 -33 -121 49 -61 48 35 92 89 126 158 29 57 42 64 222 118 50 15 95 29 100 31 14 5 118 -4 139 -12z"/>
<path d="M5680 8143 c-99 -33 -172 -69 -203 -101 -20 -20 -56 -80 -80 -132 -25 -52 -68 -133 -97 -180 -29 -47 -68 -111 -87 -142 -51 -86 -95 -100 -166 -51 l-39 27 -20 -24 c-15 -18 -18 -33 -14 -60 17 -100 17 -151 -3 -266 -23 -134 -25 -216 -8 -284 13 -50 39 -64 57 -31 6 12 22 70 35 130 35 158 71 218 158 262 20 11 51 38 68 62 32 44 180 308 247 442 44 89 79 125 165 176 103 60 142 124 99 162 -18 16 -78 22 -112 10z"/>
<path d="M4798 7980 c-69 -54 -96 -222 -63 -391 14 -73 17 -119 12 -224 -7 -153 -1 -168 51 -141 21 11 36 31 49 63 19 49 20 92 13 368 -2 90 1 122 18 175 36 109 26 170 -27 170 -16 0 -40 -9 -53 -20z"/>
<path d="M5722 7485 c-23 -7 -54 -20 -67 -29 -26 -17 -33 -50 -13 -62 6 -4 77 -13 157 -21 233 -22 349 -71 505 -212 94 -85 139 -111 164 -95 48 30 1 137 -107 244 -133 133 -281 191 -485 189 -63 0 -130 -6 -154 -14z"/>
<path d="M5535 7245 c-75 -19 -131 -53 -179 -106 -46 -50 -66 -95 -66 -147 0 -67 34 -79 107 -36 36 21 51 24 87 19 57 -9 96 13 136 76 44 68 70 88 130 99 60 11 103 35 98 53 -15 46 -199 70 -313 42z"/>
<path d="M6294 6995 c-3 -8 10 -43 29 -77 33 -61 54 -115 77 -205 21 -83 60 -40 60 66 0 78 -25 146 -71 192 -41 41 -85 52 -95 24z"/>
<path d="M4596 6981 c-45 -49 -75 -244 -41 -258 24 -9 52 24 76 86 26 70 38 142 28 170 -10 26 -40 27 -63 2z"/>
<path d="M4433 6648 c-16 -20 -30 -73 -52 -191 -12 -66 -34 -140 -56 -190 -47 -105 -49 -111 -41 -143 6 -24 11 -26 41 -21 83 14 128 86 146 237 6 52 20 122 30 155 33 105 22 165 -30 165 -16 0 -33 -6 -38 -12z"/>
<path d="M6167 6282 c-25 -38 -70 -90 -104 -117 -72 -59 -100 -97 -119 -161 -27 -90 -11 -189 34 -213 30 -16 49 8 57 71 13 103 23 125 93 200 92 100 120 138 138 190 19 57 7 98 -30 98 -20 0 -34 -14 -69 -68z"/>
<path d="M4685 6171 c-16 -10 -66 -52 -109 -93 -87 -81 -91 -95 -36 -123 36 -19 136 -21 190 -5 56 16 111 12 191 -15 83 -29 122 -29 127 -2 5 26 -29 60 -118 119 -41 28 -93 68 -115 89 -50 48 -89 57 -130 30z"/>
<path d="M5549 6104 c-18 -22 8 -118 61 -225 49 -99 85 -152 141 -207 34 -35 48 -42 73 -40 27 3 31 7 34 38 2 29 -4 44 -40 86 -45 52 -47 57 -122 216 -32 67 -56 105 -79 122 -39 30 -50 32 -68 10z"/>
<path d="M4128 6033 c-21 -26 -128 -196 -172 -275 -70 -126 -29 -165 90 -87 86 56 140 69 227 57 82 -12 117 3 117 52 0 41 -35 61 -132 77 -45 7 -83 15 -86 18 -3 3 0 34 7 69 18 89 -10 137 -51 89z"/>
<path d="M4375 5608 c-63 -34 -82 -80 -47 -111 27 -25 66 -21 102 10 27 22 31 31 26 56 -11 54 -38 69 -81 45z"/>
<path d="M4562 5557 c-5 -6 -13 -37 -17 -67 -6 -47 -13 -60 -48 -91 -66 -61 -66 -61 227 -113 88 -15 116 -12 116 14 0 31 -56 102 -137 173 -93 82 -126 102 -141 84z"/>
<path d="M3785 5506 c-40 -18 -129 -99 -155 -142 -38 -61 -7 -80 80 -49 55 19 115 19 173 -1 55 -19 91 -7 117 39 14 25 13 30 -5 64 -37 70 -149 117 -210 89z"/>
<path d="M4200 5409 c-35 -15 -80 -60 -80 -81 0 -45 105 -49 183 -6 42 23 55 50 38 77 -11 18 -107 25 -141 10z"/>
<path d="M4343 5216 c-78 -45 -132 -86 -138 -106 -12 -36 5 -57 88 -113 45 -31 93 -67 106 -81 33 -35 67 -34 75 2 4 15 16 58 28 96 28 95 22 160 -21 198 -39 35 -81 36 -138 4z"/>
<path d="M4680 5168 c-38 -62 -21 -160 48 -276 60 -101 118 -162 152 -162 77 0 88 89 24 192 -13 20 -40 77 -59 126 -57 143 -122 190 -165 120z"/>
<path d="M4972 4248 c-44 -46 -116 -126 -160 -178 -78 -93 -113 -121 -221 -177 -63 -33 -81 -55 -65 -80 9 -14 25 -18 70 -18 130 0 265 102 394 297 91 138 119 200 100 223 -7 8 -18 15 -26 15 -7 0 -49 -37 -92 -82z"/>
<path d="M11332 7819 c-111 -56 -199 -241 -190 -403 4 -83 30 -130 78 -141 62 -14 90 2 200 114 129 131 193 168 328 185 48 6 92 15 99 19 20 13 3 36 -41 59 -66 34 -177 35 -306 4 -58 -14 -108 -26 -112 -26 -5 0 -8 13 -8 29 0 18 15 49 40 82 23 30 39 63 38 74 -4 30 -71 32 -126 4z"/>
<path d="M8987 7743 c-14 -14 -6 -40 28 -91 20 -28 32 -52 27 -52 -5 0 -42 14 -82 30 -96 40 -157 46 -245 26 -133 -32 -131 -62 6 -131 93 -47 195 -132 187 -157 -7 -22 -54 -21 -99 3 -173 88 -359 90 -535 5 -114 -54 -224 -170 -224 -236 0 -38 29 -33 110 20 146 96 275 132 397 112 88 -15 207 -74 303 -152 41 -33 103 -75 138 -92 60 -30 65 -31 114 -20 66 16 98 40 131 100 62 113 54 300 -18 443 -30 58 -95 139 -137 169 -38 28 -86 39 -101 23z"/>
<path d="M9485 7451 c-3 -6 -8 -85 -10 -178 -3 -92 -7 -199 -10 -238 -19 -247 -131 -583 -306 -917 -173 -329 -304 -636 -316 -738 -5 -42 -3 -51 12 -56 26 -10 45 18 101 148 77 180 176 375 295 584 145 256 292 558 323 665 60 211 59 453 -4 634 -26 76 -68 123 -85 96z"/>
<path d="M8410 7161 c-78 -24 -220 -123 -303 -211 -75 -79 -152 -192 -208 -305 -51 -103 -56 -134 -31 -165 18 -22 22 -23 59 -12 22 6 48 21 58 32 18 20 18 20 46 -27 15 -27 58 -78 96 -114 211 -204 496 -210 784 -17 102 68 238 189 256 227 19 40 15 91 -11 146 -29 61 -137 196 -206 258 -90 81 -227 162 -315 186 -45 12 -187 13 -225 2z m610 -469 c0 -101 -193 -265 -371 -316 -52 -15 -66 -15 -160 -1 -128 19 -211 56 -268 121 -42 48 -81 135 -81 182 0 25 57 131 71 132 4 0 9 -19 12 -43 10 -69 47 -154 90 -203 66 -75 190 -122 288 -111 107 13 260 115 293 196 8 22 18 70 22 106 l7 66 48 -47 c39 -39 49 -55 49 -82z"/>
<path d="M7656 6718 c-50 -80 -69 -290 -41 -459 20 -123 77 -283 141 -394 26 -44 97 -152 158 -240 165 -235 186 -277 231 -452 28 -111 46 -143 80 -143 54 0 69 79 41 212 -21 97 -72 197 -171 338 -296 419 -397 684 -380 1003 5 94 4 132 -5 142 -18 21 -37 18 -54 -7z"/>
<path d="M9288 4901 c-59 -47 -141 -259 -190 -496 -30 -140 -32 -164 -32 -360 -1 -132 4 -238 12 -285 91 -511 107 -573 147 -540 20 17 20 162 -1 379 -34 354 8 765 121 1180 23 86 24 96 10 118 -19 28 -35 29 -67 4z"/>
</g>
</svg>
